<svg xmlns="http://www.w3.org/2000/svg" xmlns:xlink="http://www.w3.org/1999/xlink" version="1.1" id="Your_Icon" x="0px" y="0px" width="100px" height="100px" viewBox="0 0 100 100" enable-background="new 0 0 100 100" xml:space="preserve">
<path fill="#ffffff" d="M39.192,20.882c-0.298,0-0.596-0.122-0.81-0.336s-0.336-0.512-0.336-0.81c0-0.306,0.122-0.596,0.336-0.81  c0.428-0.429,1.191-0.429,1.619,0c0.215,0.214,0.337,0.504,0.337,0.81c0,0.298-0.122,0.596-0.337,0.81  C39.789,20.76,39.499,20.882,39.192,20.882z"/>
<path fill="#ffffff" d="M41.53,23.221c-0.298,0-0.596-0.123-0.81-0.337s-0.336-0.512-0.336-0.81c0-0.306,0.122-0.604,0.336-0.811  c0.428-0.427,1.191-0.427,1.62,0c0.214,0.215,0.336,0.505,0.336,0.811c0,0.298-0.122,0.596-0.336,0.81S41.835,23.221,41.53,23.221z"/>
<path fill="#ffffff" d="M38.023,24.389c-0.298,0-0.596-0.121-0.81-0.336c-0.214-0.214-0.337-0.512-0.337-0.81  c0-0.306,0.123-0.604,0.337-0.81c0.428-0.428,1.191-0.428,1.62,0c0.213,0.214,0.336,0.504,0.336,0.81  c0,0.298-0.123,0.596-0.336,0.81C38.619,24.268,38.329,24.389,38.023,24.389z"/>
<path fill="#ffffff" d="M40.362,26.72c-0.299,0-0.597-0.122-0.811-0.336c-0.214-0.215-0.336-0.513-0.336-0.81  c0-0.299,0.122-0.597,0.336-0.811c0.421-0.428,1.192-0.428,1.62,0c0.214,0.214,0.336,0.512,0.336,0.811  c0,0.305-0.122,0.595-0.336,0.81C40.957,26.598,40.66,26.72,40.362,26.72z"/>
<path fill="#ffffff" d="M43.869,26.139c-0.307,0-0.597-0.121-0.811-0.336c-0.214-0.214-0.336-0.512-0.336-0.811  c0-0.297,0.122-0.595,0.328-0.809c0.429-0.428,1.2-0.428,1.628,0c0.214,0.214,0.336,0.512,0.336,0.809  c0,0.299-0.122,0.597-0.336,0.811C44.464,26.018,44.167,26.139,43.869,26.139z"/>
<path fill="#ffffff" d="M42.178,82.297c-0.545,0-1.028-0.39-1.127-0.945c-0.11-0.623,0.305-1.218,0.928-1.328  c1.736-0.31,3.458-0.923,5.118-1.823c0.556-0.301,1.253-0.096,1.554,0.46c0.303,0.557,0.096,1.252-0.46,1.555  c-1.877,1.019-3.832,1.713-5.811,2.064C42.313,82.291,42.245,82.297,42.178,82.297z"/>
<path fill="#ffffff" d="M86.475,38.892c-0.045-0.71-0.084-1.335-0.114-1.859c-0.377-6.631-1.535-14.514-7.208-16.688  c-0.013-0.005-0.024-0.01-0.038-0.015l-0.012-0.005c-0.011-0.003-0.021-0.007-0.031-0.011c-0.001,0-0.001-0.001-0.002-0.001  c-0.008-0.003-0.017-0.006-0.024-0.009c-0.003-0.003-0.003-0.001-0.003-0.001c-0.003-0.001-0.005-0.002-0.008-0.003l-2.94-1.069  c-0.129-0.063-0.261-0.107-0.382-0.133c-0.735-0.238-1.506-0.358-2.292-0.358c-4.944,0-9.642,4.587-13.416,8.274l-0.307,0.299  c-0.258,0.268-2.671,2.78-5.762,6.259c-0.68-1.604-1.304-3.032-1.831-4.239c-0.285-0.651-0.535-1.226-0.744-1.709  c-2.614-6.085-6.38-13.061-12.395-13.214c-0.026-0.001-0.052-0.002-0.077-0.002h-3.549c-0.033,0-0.066,0.001-0.099,0.004  c-6.011,0.198-9.511,7.479-12.076,12.816l-0.184,0.383c-0.408,0.919-10,22.616-10,31.518c0,11.422,7.919,21.158,18.829,23.15  c0.031,0.007,0.063,0.011,0.096,0.014c0,0,1.049,0.102,1.839,0.147c1.303,0.072,2.858,0.113,3.436,0.113  c0.549,0,2.154-0.062,3.438-0.136c0.832-0.048,1.388-0.09,1.7-0.128c0.628-0.077,1.075-0.648,0.999-1.276  c-0.077-0.629-0.653-1.067-1.277-0.999c-0.178,0.022-0.593,0.06-1.553,0.114c-1.341,0.076-2.852,0.133-3.308,0.133  c-0.483,0-2.001-0.037-3.305-0.11c-0.652-0.038-1.493-0.115-1.701-0.136c-9.797-1.813-16.901-10.589-16.901-20.887  c0-8.418,9.705-30.366,9.789-30.556l0.169-0.352c2.337-4.862,5.538-11.521,10.262-11.521h3.271c4.849,0,8.31,6.751,10.492,11.829  c0.209,0.487,0.462,1.065,0.749,1.722c0.633,1.448,1.409,3.229,2.249,5.237c-5.015,5.776-11.012,13.295-12.732,18.021  c-3.906,10.733,0.205,22.591,9.775,28.195c0.027,0.017,0.056,0.031,0.084,0.046c0,0,0.953,0.455,1.677,0.767  c1.221,0.523,2.662,1.091,3.189,1.282c0.518,0.188,2.048,0.678,3.278,1.049c0.821,0.245,1.343,0.392,1.702,0.473  c1.033,0.181,2.104,0.272,3.18,0.272c10.449,0,19.852-8.064,22.57-15.538C87.932,61.944,86.947,46.374,86.475,38.892z   M82.824,69.271c-2.466,6.775-11.259,14.029-20.417,14.029c-0.944,0-1.882-0.08-2.724-0.226c-0.246-0.057-0.738-0.196-1.499-0.424  c-1.264-0.38-2.731-0.853-3.154-1.007c-0.516-0.187-1.933-0.747-3.068-1.234c-0.6-0.257-1.361-0.618-1.549-0.708  c-8.585-5.056-12.26-15.732-8.738-25.409c2.878-7.909,19.506-25.216,19.649-25.365l0.281-0.274  c3.294-3.217,7.805-7.622,11.815-7.622c0.619,0,1.195,0.101,1.765,0.308c0,0,0.002,0.001,0.004,0.001l3.071,1.117  c0.005,0.002,0.009,0.003,0.014,0.005c0.002,0.001,0.003,0.001,0.006,0.002c0.013,0.005,0.025,0.01,0.038,0.015  c4.507,1.702,5.443,9.195,5.754,14.684c0.031,0.528,0.07,1.159,0.116,1.874C84.614,45.791,85.614,61.61,82.824,69.271z"/>
<path fill="#ffffff" d="M63.405,71.917c-1.551,0-3.081-0.271-4.55-0.806c-6.9-2.512-10.469-10.168-7.958-17.065  c1.908-5.242,6.936-8.764,12.512-8.764c1.551,0,3.082,0.271,4.552,0.806C74.86,48.6,78.43,56.255,75.918,63.152  C74.011,68.395,68.981,71.917,63.405,71.917z M63.409,47.574c-4.616,0-8.779,2.915-10.359,7.255  c-2.078,5.711,0.878,12.048,6.59,14.129c1.216,0.442,2.483,0.667,3.766,0.667c4.616,0,8.78-2.916,10.359-7.256  c2.078-5.711-0.877-12.048-6.588-14.128C65.96,47.799,64.692,47.574,63.409,47.574z"/>
<path fill="#ffffff" d="M66.896,52.347c-0.298,0-0.596-0.122-0.81-0.337c-0.214-0.214-0.337-0.512-0.337-0.81  s0.123-0.596,0.337-0.81c0.436-0.428,1.191-0.428,1.62,0c0.213,0.214,0.336,0.512,0.336,0.81s-0.123,0.596-0.329,0.81  C67.493,52.225,67.202,52.347,66.896,52.347z"/>
<path fill="#ffffff" d="M69.235,54.685c-0.299,0-0.597-0.122-0.811-0.336s-0.336-0.513-0.336-0.811s0.122-0.596,0.336-0.81  c0.436-0.428,1.199-0.428,1.62,0c0.214,0.214,0.336,0.512,0.336,0.81c0,0.306-0.122,0.597-0.336,0.811  C69.83,54.562,69.54,54.685,69.235,54.685z"/>
<path fill="#ffffff" d="M65.728,55.854c-0.298,0-0.596-0.122-0.81-0.336c-0.215-0.214-0.336-0.513-0.336-0.811  c0-0.306,0.121-0.596,0.336-0.81c0.428-0.428,1.199-0.428,1.62,0c0.214,0.206,0.336,0.504,0.336,0.81  c0,0.298-0.122,0.597-0.336,0.811C66.323,55.731,66.033,55.854,65.728,55.854z"/>
<path fill="#ffffff" d="M68.065,58.191c-0.298,0-0.596-0.122-0.81-0.336s-0.336-0.512-0.336-0.817c0-0.298,0.122-0.588,0.336-0.81  c0.42-0.421,1.192-0.429,1.619,0c0.215,0.222,0.337,0.512,0.337,0.81c0,0.306-0.122,0.596-0.337,0.817  C68.662,58.069,68.363,58.191,68.065,58.191z"/>
<path fill="#ffffff" d="M71.572,57.604c-0.298,0-0.596-0.123-0.81-0.329c-0.214-0.214-0.336-0.512-0.336-0.817  c0-0.298,0.122-0.596,0.336-0.811c0.428-0.427,1.185-0.427,1.62,0c0.214,0.215,0.336,0.513,0.336,0.811s-0.122,0.596-0.336,0.81  S71.871,57.604,71.572,57.604z"/>
</svg>
