<?xml version="1.0" encoding="utf-8"?>
<!-- Generator: Adobe Illustrator 17.0.0, SVG Export Plug-In . SVG Version: 6.00 Build 0)  -->
<!DOCTYPE svg PUBLIC "-//W3C//DTD SVG 1.1 Tiny//EN" "http://www.w3.org/Graphics/SVG/1.1/DTD/svg11-tiny.dtd">
<svg version="1.1" baseProfile="tiny" id="Layer_1" xmlns="http://www.w3.org/2000/svg" xmlns:xlink="http://www.w3.org/1999/xlink"
	 x="0px" y="0px" width="1500px" height="1500px" viewBox="0 0 1500 1500" xml:space="preserve">
<path fill="#B47022" d="M530.736,159.266c-6.046,0-12.091-2.475-16.433-6.817s-6.817-10.387-6.817-16.433
	c0-6.208,2.475-12.091,6.817-16.433c8.683-8.703,24.162-8.703,32.846,0c4.362,4.342,6.837,10.225,6.837,16.433
	c0,6.046-2.475,12.091-6.837,16.433C542.848,156.791,536.964,159.266,530.736,159.266z"/>
<path fill="#B47022" d="M578.168,206.719c-6.046,0-12.091-2.495-16.433-6.837c-4.342-4.342-6.817-10.387-6.817-16.433
	c0-6.208,2.475-12.254,6.817-16.453c8.683-8.663,24.162-8.663,32.866,0c4.342,4.362,6.817,10.245,6.817,16.453
	c0,6.046-2.475,12.091-6.817,16.433C590.26,204.223,584.356,206.719,578.168,206.719z"/>
<path fill="#B47022" d="M507.02,230.415c-6.046,0-12.091-2.455-16.433-6.817c-4.342-4.342-6.837-10.387-6.837-16.433
	c0-6.208,2.495-12.254,6.837-16.433c8.683-8.683,24.163-8.683,32.866,0c4.321,4.342,6.817,10.225,6.817,16.433
	c0,6.046-2.495,12.091-6.817,16.433C519.111,227.96,513.228,230.415,507.02,230.415z"/>
<path fill="#B47022" d="M554.472,277.705c-6.066,0-12.112-2.475-16.453-6.817c-4.342-4.362-6.817-10.408-6.817-16.433
	c0-6.066,2.475-12.112,6.817-16.453c8.541-8.683,24.183-8.683,32.866,0c4.342,4.342,6.817,10.387,6.817,16.453
	c0,6.188-2.475,12.071-6.817,16.433C566.544,275.23,560.518,277.705,554.472,277.705z"/>
<path fill="#B47022" d="M625.621,265.918c-6.228,0-12.112-2.455-16.453-6.817c-4.342-4.342-6.817-10.387-6.817-16.453
	c0-6.025,2.475-12.071,6.654-16.413c8.703-8.683,24.345-8.683,33.028,0c4.342,4.342,6.817,10.387,6.817,16.413
	c0,6.066-2.475,12.112-6.817,16.453C637.692,263.463,631.667,265.918,625.621,265.918z"/>
<path fill="#35C360" d="M591.315,1405.228c-11.057,0-20.856-7.912-22.864-19.172c-2.232-12.639,6.188-24.71,18.827-26.942
	c35.219-6.289,70.154-18.725,103.832-36.984c11.28-6.107,25.42-1.948,31.527,9.332c6.147,11.3,1.948,25.4-9.332,31.547
	c-38.08,20.673-77.742,34.753-117.891,41.874C594.054,1405.106,592.674,1405.228,591.315,1405.228z"/>
<path fill="#35C360" d="M1489.994,524.645c-0.913-14.404-1.704-27.084-2.313-37.715c-7.648-134.527-31.141-294.454-146.233-338.559
	c-0.264-0.101-0.487-0.203-0.771-0.304l-0.243-0.101c-0.223-0.061-0.426-0.142-0.629-0.223c-0.02,0-0.02-0.02-0.041-0.02
	c-0.162-0.061-0.345-0.122-0.487-0.183c-0.061-0.061-0.061-0.02-0.061-0.02c-0.061-0.02-0.101-0.041-0.162-0.061l-59.646-21.687
	c-2.617-1.278-5.295-2.171-7.75-2.698c-14.911-4.828-30.553-7.263-46.499-7.263c-100.302,0-195.613,93.059-272.178,167.859
	l-6.228,6.066c-5.234,5.437-54.188,56.4-116.897,126.98c-13.796-32.541-26.455-61.512-37.147-85.999
	c-5.782-13.207-10.854-24.873-15.094-34.671c-53.032-123.45-129.435-264.976-251.465-268.08c-0.527-0.02-1.055-0.041-1.562-0.041
	h-72.001c-0.67,0-1.339,0.02-2.008,0.081c-121.949,4.017-192.955,151.731-244.993,260.006l-3.733,7.77
	C193.576,314.426-1.022,754.605-1.022,935.205c0,231.725,160.657,429.245,381.995,469.658c0.629,0.142,1.278,0.223,1.948,0.284
	c0,0,21.282,2.069,37.309,2.982c26.435,1.461,57.982,2.292,69.708,2.292c11.138,0,43.699-1.258,69.749-2.759
	c16.879-0.974,28.159-1.826,34.489-2.597c12.741-1.562,21.809-13.146,20.267-25.887c-1.562-12.761-13.248-21.647-25.907-20.267
	c-3.611,0.446-12.031,1.217-31.507,2.313c-27.206,1.542-57.86,2.698-67.111,2.698c-9.799,0-40.595-0.751-67.05-2.232
	c-13.228-0.771-30.289-2.333-34.509-2.759C189.6,1322.15,45.477,1144.107,45.477,935.185c0-170.781,196.891-616.053,198.595-619.907
	l3.429-7.141c47.412-98.638,112.353-233.733,208.191-233.733h66.361c98.375,0,168.59,136.961,212.857,239.982
	c4.24,9.88,9.373,21.606,15.195,34.935c12.842,29.376,28.585,65.509,45.627,106.246C693.99,572.747,572.325,725.29,537.431,821.169
	c-79.243,217.747,4.159,458.317,198.311,572.008c0.548,0.345,1.136,0.629,1.704,0.933c0,0,19.334,9.231,34.022,15.561
	c24.771,10.61,54.005,22.134,64.697,26.009c10.509,3.814,41.549,13.755,66.503,21.282c16.656,4.97,27.246,7.953,34.529,9.596
	c20.957,3.672,42.685,5.518,64.515,5.518c211.985,0,402.749-163.599,457.891-315.229
	C1519.553,992.315,1499.569,676.437,1489.994,524.645z M1415.924,1140.962c-50.029,137.448-228.418,284.615-414.212,284.615
	c-19.151,0-38.181-1.623-55.263-4.585c-4.991-1.156-14.972-3.976-30.411-8.602c-25.643-7.709-55.405-17.305-63.987-20.43
	c-10.468-3.794-39.216-15.155-62.242-25.035c-12.173-5.214-27.611-12.538-31.425-14.364
	c-174.169-102.574-248.726-319.164-177.273-515.487C639.498,676.62,976.84,325.503,979.741,322.48l5.701-5.559
	c66.827-65.265,158.345-154.632,239.698-154.632c12.558,0,24.244,2.049,35.807,6.249c0,0,0.041,0.02,0.081,0.02l62.303,22.661
	c0.101,0.041,0.183,0.061,0.284,0.101c0.041,0.02,0.061,0.02,0.122,0.041c0.264,0.101,0.507,0.203,0.771,0.304
	c91.436,34.529,110.425,186.544,116.735,297.903c0.629,10.712,1.42,23.513,2.353,38.019
	C1452.239,664.61,1472.526,985.539,1415.924,1140.962z"/>
<path fill="#35C360" d="M1021.959,1194.643c-31.466,0-62.506-5.498-92.308-16.352c-139.984-50.962-212.391-206.284-161.449-346.208
	c38.709-106.348,140.715-177.8,253.838-177.8c31.466,0,62.526,5.498,92.349,16.352c139.964,50.962,212.391,206.264,161.428,346.187
	C1237.129,1123.19,1135.083,1194.643,1021.959,1194.643z M1022.04,700.782c-93.648,0-178.105,59.138-210.159,147.186
	c-42.158,115.862,17.812,244.425,133.695,286.643c24.67,8.967,50.374,13.532,76.403,13.532c93.647,0,178.125-59.159,210.159-147.207
	c42.158-115.862-17.792-244.425-133.655-286.623C1073.794,705.347,1048.069,700.782,1022.04,700.782z"/>
<path fill="#B47022" d="M1092.783,797.615c-6.046,0-12.091-2.475-16.433-6.837c-4.341-4.342-6.837-10.387-6.837-16.433
	s2.495-12.091,6.837-16.433c8.845-8.683,24.163-8.683,32.866,0c4.321,4.342,6.817,10.387,6.817,16.433s-2.495,12.091-6.675,16.433
	C1104.895,795.14,1098.991,797.615,1092.783,797.615z"/>
<path fill="#B47022" d="M1140.236,845.047c-6.066,0-12.112-2.475-16.453-6.817c-4.341-4.341-6.817-10.408-6.817-16.453
	c0-6.046,2.475-12.091,6.817-16.433c8.845-8.683,24.325-8.683,32.866,0c4.341,4.342,6.817,10.387,6.817,16.433
	c0,6.208-2.475,12.112-6.817,16.453C1152.307,842.552,1146.424,845.047,1140.236,845.047z"/>
<path fill="#B47022" d="M1069.087,868.763c-6.046,0-12.091-2.475-16.433-6.817c-4.362-4.342-6.817-10.408-6.817-16.453
	c0-6.208,2.455-12.091,6.817-16.433c8.683-8.683,24.325-8.683,32.866,0c4.342,4.179,6.817,10.225,6.817,16.433
	c0,6.046-2.475,12.112-6.817,16.453C1081.158,866.268,1075.275,868.763,1069.087,868.763z"/>
<path fill="#B47022" d="M1116.499,916.176c-6.046,0-12.091-2.475-16.433-6.817c-4.341-4.341-6.817-10.387-6.817-16.575
	c0-6.046,2.475-11.929,6.817-16.433c8.521-8.541,24.183-8.703,32.846,0c4.362,4.504,6.837,10.387,6.837,16.433
	c0,6.208-2.475,12.091-6.837,16.575C1128.611,913.701,1122.545,916.176,1116.499,916.176z"/>
<path fill="#B47022" d="M1187.648,904.267c-6.046,0-12.091-2.495-16.433-6.675c-4.341-4.342-6.817-10.387-6.817-16.575
	c0-6.046,2.475-12.091,6.817-16.453c8.683-8.663,24.041-8.663,32.866,0c4.342,4.362,6.817,10.408,6.817,16.453
	s-2.475,12.091-6.817,16.433C1199.74,901.792,1193.714,904.267,1187.648,904.267z"/>
</svg>
