<?xml version="1.0" encoding="utf-8"?>
<!-- Generator: Adobe Illustrator 17.0.0, SVG Export Plug-In . SVG Version: 6.00 Build 0)  -->
<!DOCTYPE svg PUBLIC "-//W3C//DTD SVG 1.1 Tiny//EN" "http://www.w3.org/Graphics/SVG/1.1/DTD/svg11-tiny.dtd">
<svg version="1.1" baseProfile="tiny" id="White" xmlns="http://www.w3.org/2000/svg" xmlns:xlink="http://www.w3.org/1999/xlink"
	 x="0px" y="0px" width="266.895px" height="266.895px" viewBox="0 0 266.895 266.895" xml:space="preserve">
<path id="White_2_" fill="#FFFFFF" d="M210.251,47.114H56.644c-5.264,0-9.53,4.266-9.53,9.53v153.607c0,5.263,4.266,9.53,9.53,9.53
	h82.697v-66.866h-22.502v-26.059h22.502v-19.218c0-22.302,13.621-34.446,33.516-34.446c9.53,0,17.72,0.71,20.107,1.027v23.307
	l-13.798,0.006c-10.82,0-12.915,5.141-12.915,12.686v16.637h25.805l-3.36,26.059h-22.445v66.866h44c5.263,0,9.53-4.267,9.53-9.53
	V56.644C219.781,51.38,215.514,47.114,210.251,47.114z"/>
</svg>
